<svg width="26" height="26" viewBox="0 0 26 26" fill="none" xmlns="http://www.w3.org/2000/svg">
<path fill-rule="evenodd" clip-rule="evenodd" d="M2.17054 2.40343C-0.723517 5.608 -0.723512 10.8036 2.17055 14.0082L2.51977 14.3949L2.5195 14.3952L12.9998 26L13.0001 25.9997L13.0002 25.9998L23.4805 14.395L23.4804 14.3949L23.8295 14.0084C26.7235 10.8038 26.7235 5.60817 23.8295 2.4036C20.9354 -0.800973 16.2432 -0.800967 13.3491 2.40361L13.0001 2.79013L12.6508 2.40343C9.75679 -0.801143 5.0646 -0.801144 2.17054 2.40343Z" fill="#FF008C"/>
<path fill-rule="evenodd" clip-rule="evenodd" d="M2.5195 14.3953L2.17055 14.0083C2.15876 13.9953 2.14702 13.9822 2.13533 13.9691C2.13532 13.9691 2.13533 13.9691 2.13533 13.9691C2.1249 13.9574 2.11451 13.9456 2.10416 13.9339C-0.72334 10.7238 -0.701217 5.58335 2.17054 2.40345C5.0646 -0.801149 9.75679 -0.801148 12.6508 2.40345L13.0001 2.79015L13.3491 2.40362C16.2432 -0.800972 20.9354 -0.800978 23.8295 2.40362C26.7235 5.60821 26.7235 10.8039 23.8295 14.0085L23.4804 14.395L13.0002 26L2.5195 14.3953ZM12.9998 22.4584L5.71965 14.3971L3.76982 12.2374C1.75901 10.0109 1.75901 6.40089 3.76981 4.17432C5.78062 1.94776 9.04077 1.94776 11.0516 4.17432L13.0001 6.3319L14.9484 4.1745C16.9592 1.94793 20.2194 1.94793 22.2302 4.17449C24.241 6.40106 24.241 10.011 22.2302 12.2376L20.2893 14.3867L12.9998 22.4584Z" fill="black"/>
</svg>
