<svg width="29" height="18" viewBox="0 0 29 18" fill="none" xmlns="http://www.w3.org/2000/svg">
<rect width="19" height="14.8235" transform="matrix(-1 0 0 1 27.999 1.05908)" fill="white"/>
<path d="M8.99902 16.9414V1.05908H-0.000977516V4.23555C1.33236 4.41202 3.99902 5.61202 3.99902 9.00026C3.99902 12.3885 1.66569 13.5885 0.499022 13.765V16.9414H8.99902Z" fill="#C908FF"/>
<path d="M18.7243 13.7648V12.9128C17.0811 12.8234 16.0595 11.9819 16 10.5673H17.3838C17.4432 11.272 17.9892 11.6611 18.7243 11.7348V9.48389L18.2919 9.37871C17.0054 9.05265 16.2054 8.42156 16.2054 7.32768C16.2054 6.08128 17.2649 5.22405 18.7243 5.09784V4.23535H19.3514V5.09784C20.8649 5.18724 21.8703 6.07076 21.8919 7.2856H20.5405C20.4811 6.71237 20.0324 6.34949 19.3514 6.26535V8.39001L19.7081 8.48467C20.8757 8.74762 22 9.34716 22 10.6724C22 11.9346 21.0378 12.8181 19.3514 12.9128V13.7648H18.7243ZM17.6324 7.24353C17.6324 7.80099 18.1568 8.07446 18.7243 8.23223V6.27587C18.0378 6.37053 17.6324 6.74918 17.6324 7.24353ZM19.3514 11.7348C20.1027 11.6454 20.5946 11.2352 20.5946 10.6619C20.5946 10.1045 20.0973 9.84677 19.3514 9.64166V11.7348Z" fill="black"/>
<path fill-rule="evenodd" clip-rule="evenodd" d="M0.00121617 0H29.0012V9V18H0.00121617V13.7646C0.000810805 13.7646 0.000405414 13.7646 0 13.7646V11.6469C0.667326 11.6469 1.12896 11.3745 1.44501 10.9576C1.78019 10.5154 2 9.8399 2 8.99989C2 8.15987 1.78019 7.48435 1.44501 7.0422C1.12896 6.62527 0.667326 6.35283 0 6.35283V4.23518C0.000405414 4.23518 0.000810805 4.23518 0.00121617 4.23518V0ZM2.00122 4.79105C2.38567 5.03178 2.72258 5.34445 3.00474 5.71666C3.68631 6.61577 4 7.7932 4 8.99989C4 10.2066 3.68631 11.384 3.00474 12.2831C2.72258 12.6553 2.38567 12.968 2.00122 13.2087V15.8824H27.0012V2.11765H2.00122V4.79105ZM10.9993 2.11774V5.29421H8.99929V2.11774H10.9993ZM10.9993 10.5883V7.41179H8.99929V10.5883H10.9993ZM10.9993 15.8823V12.7058H8.99929V15.8823H10.9993Z" fill="black"/>
</svg>
