<svg xmlns="http://www.w3.org/2000/svg" width="24" height="24" viewBox="0 0 24 24" fill="none">
  <path fill-rule="evenodd" clip-rule="evenodd" d="M24 1.0435C24 1.6198 23.5328 2.08699 22.9565 2.08699L1.0435 2.08699C0.467189 2.08699 0 1.6198 0 1.0435C0 0.467189 0.467189 0 1.0435 0L22.9565 0C23.5328 0 24 0.467189 24 1.0435Z" fill="black"/>
  <path fill-rule="evenodd" clip-rule="evenodd" d="M24 22.9566C24 23.5329 23.5328 24.0001 22.9565 24.0001L1.0435 24.0001C0.467189 24.0001 0 23.5329 0 22.9566C0 22.3803 0.467189 21.9131 1.0435 21.9131L22.9565 21.9131C23.5328 21.9131 24 22.3803 24 22.9566Z" fill="black"/>
  <path fill-rule="evenodd" clip-rule="evenodd" d="M24 11.4786C24 12.0549 23.5328 12.522 22.9565 12.522L1.0435 12.522C0.467189 12.522 0 12.0549 0 11.4786C0 10.9022 0.467189 10.4351 1.0435 10.4351L22.9565 10.4351C23.5328 10.4351 24 10.9022 24 11.4786Z" fill="black"/>
</svg>