<svg xmlns="http://www.w3.org/2000/svg" width="22" height="25" viewBox="0 0 22 25" fill="none">
  <path fill-rule="evenodd" clip-rule="evenodd" d="M10.9987 14.3412C11.8666 14.3412 12.5701 13.5737 12.5701 12.627C12.5701 11.6802 11.8666 10.9127 10.9987 10.9127C10.1308 10.9127 9.42727 11.6802 9.42727 12.627C9.42727 13.5737 10.1308 14.3412 10.9987 14.3412ZM10.9987 16.627C13.0237 16.627 14.6654 14.8361 14.6654 12.627C14.6654 10.4178 13.0237 8.62695 10.9987 8.62695C8.97365 8.62695 7.33203 10.4178 7.33203 12.627C7.33203 14.8361 8.97365 16.627 10.9987 16.627Z" fill="current"/>
  <path fill-rule="evenodd" clip-rule="evenodd" d="M8.10214 3.23565C8.10214 1.79491 9.31918 0.626953 10.8205 0.626953C12.3218 0.626953 13.5388 1.79491 13.5388 3.23565V4.14742C14.5731 4.45243 15.5302 4.92693 16.3746 5.53716L17.922 4.6798C19.2222 3.95942 20.8847 4.38693 21.6354 5.63464C22.386 6.88236 21.9405 8.47782 20.6404 9.19819L19.5786 9.78646C19.8926 10.6783 20.0628 11.6336 20.0628 12.6271C20.0628 13.4899 19.9345 14.3239 19.6951 15.1125L20.6404 15.6363C21.9405 16.3567 22.386 17.9521 21.6354 19.1999C20.8847 20.4476 19.2222 20.8751 17.922 20.1547L16.695 19.4749C15.7752 20.2024 14.7063 20.7626 13.5388 21.1069V22.0183C13.5388 23.459 12.3218 24.627 10.8205 24.627C9.31918 24.627 8.10214 23.459 8.10214 22.0183V21.1069C7.01697 20.7869 6.01691 20.2803 5.1426 19.6262L4.71956 20.0321C3.65798 21.0509 1.93683 21.0509 0.87525 20.0321C-0.186326 19.0134 -0.186326 17.3617 0.87525 16.3429L1.99487 15.2684C1.72405 14.4341 1.57814 13.547 1.57814 12.6271C1.57814 11.5717 1.77022 10.5594 2.12267 9.62053L1.35962 9.19775C0.0594617 8.47738 -0.386006 6.88193 0.364642 5.63421C1.11529 4.38649 2.7778 3.95899 4.07796 4.67936L5.42445 5.4254C6.22959 4.86883 7.13184 4.43355 8.10214 4.14742V3.23565ZM10.2768 3.77267V5.84434V5.86431C8.46819 5.99634 6.84984 6.78164 5.67741 7.97488L5.34499 7.7907L5.34477 7.79106L2.99062 6.48672C2.73059 6.34264 2.39809 6.42814 2.24796 6.67769C2.09783 6.92723 2.18692 7.24632 2.44696 7.39039L3.09861 7.75145C3.09869 7.75134 3.09877 7.75122 3.09885 7.7511L4.98669 8.79709C4.20824 9.88697 3.7528 11.206 3.7528 12.6271C3.7528 13.7591 4.04173 14.8262 4.55267 15.7644L4.33471 15.9736L4.33513 15.974L2.41297 17.8186C2.20066 18.0223 2.20066 18.3527 2.41297 18.5564C2.62529 18.7602 2.96952 18.7602 3.18184 18.5564L3.59574 18.1592C3.59562 18.1591 3.5955 18.1589 3.59538 18.1588L5.14575 16.6709C5.25772 16.8154 5.37554 16.9555 5.49887 17.0908L6.16926 17.7341C7.2845 18.6703 8.70912 19.2755 10.2767 19.39V19.4096H10.2768V22.0183C10.2768 22.3064 10.5202 22.54 10.8205 22.54C11.1207 22.54 11.3641 22.3064 11.3641 22.0183V21.4816C11.3641 21.4816 11.3641 21.4816 11.364 21.4816V19.39C13.3735 19.2433 15.1481 18.2903 16.3372 16.8672L16.655 17.0433L16.6552 17.043L19.0094 18.3474C19.2694 18.4914 19.6019 18.4059 19.752 18.1564C19.9022 17.9068 19.8131 17.5877 19.553 17.4437L18.8358 17.0463C18.8357 17.0464 18.8357 17.0465 18.8356 17.0466L16.952 16.0029C17.5475 15.0088 17.8882 13.8562 17.8882 12.6271C17.8882 11.2683 17.4718 10.0027 16.7547 8.94163L17.1991 8.69544L17.1989 8.69518L19.553 7.39083C19.8131 7.24676 19.9022 6.92767 19.752 6.67812C19.6019 6.42858 19.2694 6.34308 19.0094 6.48715L18.003 7.04474C18.0031 7.04482 18.0031 7.0449 18.0032 7.04498L16.1843 8.05276C16.1523 8.07052 16.1228 8.09094 16.0961 8.11356C14.9146 6.84266 13.2419 6.00139 11.3641 5.86431V5.84434V3.77267V3.23565C11.3641 2.9475 11.1207 2.71391 10.8205 2.71391C10.5202 2.71391 10.2768 2.9475 10.2768 3.23565V3.77267Z" fill="current"/>
</svg>