<svg xmlns="http://www.w3.org/2000/svg" width="22" height="22" viewBox="0 0 22 22" fill="none">
  <path fill-rule="evenodd" clip-rule="evenodd" d="M2.86957 1.91304H19.1304C19.6587 1.91304 20.087 2.34129 20.087 2.86957V19.1304C20.087 19.6587 19.6587 20.087 19.1304 20.087H2.86957C2.34129 20.087 1.91304 19.6587 1.91304 19.1304V2.86957C1.91304 2.34129 2.34129 1.91304 2.86957 1.91304ZM0 2.86957C0 1.28475 1.28475 0 2.86957 0H19.1304C20.7153 0 22 1.28475 22 2.86957V19.1304C22 20.7153 20.7153 22 19.1304 22H2.86957C1.28475 22 0 20.7153 0 19.1304V2.86957ZM10.9991 16.1328C10.5941 16.1328 10.2658 15.8045 10.2658 15.3995V11.0011H5.86523C5.46023 11.0011 5.1319 10.6728 5.1319 10.2678C5.1319 9.86275 5.46023 9.53443 5.86523 9.53443H10.2658V5.86615C10.2658 5.46114 10.5941 5.13281 10.9991 5.13281C11.4041 5.13281 11.7324 5.46114 11.7324 5.86615V9.53443H16.1319C16.5369 9.53443 16.8652 9.86276 16.8652 10.2678C16.8652 10.6728 16.5369 11.0011 16.1319 11.0011H11.7324V15.3995C11.7324 15.8045 11.4041 16.1328 10.9991 16.1328Z" fill="black"/>
</svg>