<svg xmlns="http://www.w3.org/2000/svg" width="24" height="24" viewBox="0 0 24 24" fill="none">
  <path fill-rule="evenodd" clip-rule="evenodd" d="M2.32569 13.288L2.00358 12.9308C1.9927 12.9187 1.98186 12.9066 1.97107 12.8945C1.97107 12.8945 1.97107 12.8945 1.97107 12.8945C1.96145 12.8837 1.95185 12.8729 1.9423 12.862C-0.667698 9.89886 -0.647277 5.15386 2.00358 2.21857C4.67501 -0.739522 9.00627 -0.739522 11.6777 2.21857L12.0001 2.57552L12.3223 2.21873C14.9937 -0.739359 19.325 -0.739364 21.9964 2.21872C24.6679 5.17681 24.6679 9.97282 21.9964 12.9309L21.6742 13.2877L12.0002 24L2.32569 13.288ZM11.9998 20.7308L5.27968 13.2896L3.47983 11.2961C1.6237 9.2408 1.6237 5.90851 3.47983 3.85322C5.33595 1.79793 8.34533 1.79793 10.2015 3.85322L12.0001 5.84483L13.7985 3.85339C15.6547 1.79809 18.664 1.79809 20.5202 3.85338C22.3763 5.90867 22.3763 9.24096 20.5202 11.2962L18.7286 13.28L11.9998 20.7308Z" fill="black"/>
</svg>