<svg xmlns="http://www.w3.org/2000/svg" width="current" height="current" viewBox="0 0 19 22" fill="none">
  <path fill-rule="evenodd" clip-rule="evenodd" d="M9.32422 4.63377C5.91512 4.63377 3.48274 6.87793 3.48274 9.78953V14.2061C3.48274 14.6582 3.37006 15.1034 3.15448 15.5033L2.51921 16.6815H16.1292L15.494 15.5033C15.494 15.5033 15.494 15.5033 15.494 15.5033C15.2784 15.1034 15.1657 14.6582 15.1657 14.2061V9.78953C15.1657 6.87793 12.7333 4.63377 9.32422 4.63377ZM17.1697 14.6385L18.5377 17.1759C18.8705 17.7931 18.4131 18.535 17.6999 18.535H0.948561C0.23535 18.535 -0.222043 17.7931 0.110712 17.1759L1.47878 14.6385C1.55064 14.5052 1.5882 14.3568 1.5882 14.2061V9.78953C1.5882 5.68403 5.05173 2.78027 9.32422 2.78027C13.5967 2.78027 17.0602 5.68403 17.0602 9.78953V14.2061C17.0602 14.3568 17.0978 14.5052 17.1697 14.6385Z" fill="current"/>
  <path fill-rule="evenodd" clip-rule="evenodd" d="M9.32422 1.8535C8.69386 1.8535 7.90332 2.51795 7.90332 3.707H6.00879C6.00879 1.82507 7.33878 0 9.32422 0C11.3097 0 12.6397 1.82507 12.6397 3.707H10.7451C10.7451 2.51795 9.95459 1.8535 9.32422 1.8535Z" fill="current"/>
  <path fill-rule="evenodd" clip-rule="evenodd" d="M6.95606 17.6084C6.95606 18.5032 7.87407 19.4619 9.32423 19.4619C10.7744 19.4619 11.6924 18.5032 11.6924 17.6084H13.5869C13.5869 19.7846 11.5362 21.3154 9.32423 21.3154C7.11226 21.3154 5.06152 19.7846 5.06152 17.6084H6.95606Z" fill="current"/>
</svg>