<svg xmlns="http://www.w3.org/2000/svg" width="24" height="24" viewBox="0 0 24 24" fill="none">
  <path fill-rule="evenodd" clip-rule="evenodd" d="M0 18.8151C0 16.5242 1.86872 14.667 4.17391 14.667H19.8261C22.1313 14.667 24 16.5242 24 18.8151V24.0002H21.913V18.8151C21.913 17.6696 20.9787 16.741 19.8261 16.741H4.17391C3.02132 16.741 2.08696 17.6696 2.08696 18.8151V24.0002H0V18.8151Z" fill="black"/>
  <path fill-rule="evenodd" clip-rule="evenodd" d="M11.6667 9.2726C13.6582 9.2726 15.2727 7.65813 15.2727 5.66659C15.2727 3.67504 13.6582 2.06058 11.6667 2.06058C9.67509 2.06058 8.06061 3.67504 8.06061 5.66659C8.06061 7.65813 9.67509 9.2726 11.6667 9.2726ZM11.6667 11.3332C14.7963 11.3332 17.3333 8.79616 17.3333 5.66659C17.3333 2.53702 14.7963 0 11.6667 0C8.53705 0 6 2.53702 6 5.66659C6 8.79616 8.53705 11.3332 11.6667 11.3332Z" fill="black"/>
</svg>