<svg xmlns="http://www.w3.org/2000/svg" width="157" height="74" viewBox="0 0 157 74" fill="none">
  <path d="M0.469828 1.63039C0.469828 0.90421 0.851033 0.543463 1.61815 0.543463H26.4106C27.173 0.543463 27.5589 0.90421 27.5589 1.63039V6.90573C27.5589 7.63191 27.1777 7.99266 26.4106 7.99266H19.6948L10.9553 22.6146C10.8094 22.8676 10.6259 23.0784 10.4094 23.2377C10.1929 23.4017 9.91995 23.4814 9.59051 23.4814H1.01575C0.578072 23.4814 0.276873 23.3642 0.116861 23.13C-0.0478573 22.8957 -0.0384448 22.5771 0.145098 22.1789L8.39042 7.99266H1.61815C0.85574 7.99266 0.469828 7.63191 0.469828 6.90573V1.63039ZM17.4546 44.9013C12.466 44.9013 8.69162 44.1658 6.12202 42.6993C3.55241 41.2329 2.27232 38.8295 2.27232 35.4985C2.27232 32.1674 3.55712 29.7171 6.12202 28.2695C8.68691 26.8218 12.466 26.0956 17.4546 26.0956H27.286C32.2746 26.0956 36.0066 26.8218 38.4821 28.2695C40.9576 29.7171 42.1953 32.1299 42.1953 35.4985C42.1953 38.867 40.9576 41.2329 38.4821 42.6993C36.0066 44.1658 32.2746 44.9013 27.286 44.9013H17.4546ZM27.2812 38.2158C28.8108 38.2158 29.8556 38.0003 30.4203 37.5645C30.9851 37.1288 31.2674 36.4401 31.2674 35.4985C31.2674 34.5568 30.9851 33.8681 30.4203 33.4324C29.8556 32.9966 28.8108 32.7811 27.2812 32.7811H17.4499C15.9204 32.7811 14.8285 32.9826 14.1744 33.3808C13.5202 33.779 13.1908 34.4865 13.1908 35.5031C13.1908 36.5198 13.5202 37.2694 14.1744 37.6489C14.8285 38.0284 15.9204 38.2205 17.4499 38.2205H27.2812V38.2158ZM18.7112 23.1581C18.4194 23.1581 18.1841 23.0878 18.0006 22.9426C17.817 22.7973 17.6382 22.5818 17.4546 22.2914L15.6521 19.3023C15.4357 18.8338 15.4498 18.3606 15.7086 17.8874L19.9678 10.8224C20.1842 10.4242 20.4337 10.2227 20.7066 10.2227C20.9796 10.2227 21.2243 10.4242 21.4455 10.8224L28.1095 21.9119C28.4719 22.7458 28.199 23.1628 27.2907 23.1628H18.7159L18.7112 23.1581ZM32.4722 24.1373C31.7098 24.1373 31.3239 23.7765 31.3239 23.0503V1.14315C31.3239 0.384172 31.7051 0 32.4722 0H40.2799C41.0423 0 41.4282 0.379487 41.4282 1.14315V7.61317H43.9931C44.7226 7.61317 45.0849 7.97392 45.0849 8.7001V15.1139C45.0849 15.8401 44.7226 16.2008 43.9931 16.2008H41.4282V23.0503C41.4282 23.7765 41.047 24.1373 40.2799 24.1373H32.4722Z" fill="#C908FF"/>
  <path d="M48.9063 9.13112C48.1768 9.13112 47.8145 8.77037 47.8145 8.04419V2.23007C47.8145 1.4711 48.1768 1.08693 48.9063 1.08693H74.5741C75.3365 1.08693 75.7224 1.44767 75.7224 2.17385V42.4557C75.7224 43.1819 75.3412 43.5426 74.5741 43.5426H49.5087C48.7463 43.5426 48.3604 43.1819 48.3604 42.4557V11.8531C48.3604 11.1269 48.7416 10.7662 49.5087 10.7662H57.2646C58.027 10.7662 58.4129 11.1269 58.4129 11.8531V35.4984H65.6746V9.13112H48.911H48.9063ZM80.6875 44.3578C79.9251 44.3578 79.5392 43.9971 79.5392 43.2709V1.14315C79.5392 0.384172 79.9204 0 80.6875 0H88.4951C89.2576 0 89.6435 0.379487 89.6435 1.14315V16.1493H92.4813C93.2108 16.1493 93.5732 16.5288 93.5732 17.2924V24.5214C93.5732 25.2476 93.2108 25.6084 92.4813 25.6084H89.6435V43.2756C89.6435 44.0018 89.2623 44.3625 88.4951 44.3625H80.6875V44.3578Z" fill="#C908FF"/>
  <path d="M96.0352 1.63039C96.0352 0.90421 96.4164 0.543463 97.1835 0.543463H122.522C123.284 0.543463 123.67 0.90421 123.67 1.63039V6.74175C123.67 7.46793 123.289 7.82868 122.522 7.82868H97.1835C96.4211 7.82868 96.0352 7.46793 96.0352 6.74175V1.63039ZM105.975 9.45907C106.775 9.45907 107.156 9.83856 107.123 10.6022L106.634 15.6058H111.382C114.441 15.6058 117.416 15.4606 120.31 15.1701C123.204 14.8796 125.689 14.3362 127.765 13.5397V1.14315C127.765 0.384172 128.146 0 128.913 0H136.721C137.483 0 137.869 0.379487 137.869 1.14315V7.72092H140.434C141.163 7.72092 141.526 8.10041 141.526 8.86407V15.2263C141.526 15.9525 141.163 16.3133 140.434 16.3133H137.869V23.055C137.869 23.7812 137.488 24.1419 136.721 24.1419H128.913C128.151 24.1419 127.765 23.7812 127.765 23.055V20.2815C125.943 21.1529 123.515 21.8135 120.475 22.2679C117.434 22.7224 114.041 22.9473 110.29 22.9473H97.7294C97.367 22.9473 97.0752 22.8582 96.854 22.6755C96.6376 22.4928 96.5434 22.207 96.5811 21.8041L97.8894 10.4945C97.96 9.80576 98.3459 9.46375 99.0377 9.46375H105.975V9.45907Z" fill="#C908FF"/>
  <path d="M156.995 48.5323C157.268 62.2922 146.288 73.6674 132.466 73.9345L129.59 73.9907C117.552 74.225 107.334 65.9653 104.718 54.7399C104.473 53.6999 105.283 52.7066 106.356 52.7066H113.354C114.097 52.7066 114.756 53.1892 114.959 53.9013C116.897 60.7133 123.256 65.6467 130.701 65.5014H131.021C139.869 65.3234 146.9 58.0382 146.726 49.2303L146.674 46.7004C146.5 37.8879 139.182 30.8885 130.334 31.0665H130.014C129.247 31.0852 128.498 31.1555 127.764 31.2726C126.752 31.4366 125.835 30.6495 125.835 29.6282V24.3482C125.835 23.4674 126.522 22.7412 127.407 22.6803C127.792 22.6569 128.183 22.6381 128.569 22.6334L131.44 22.5772C145.257 22.3055 156.684 33.2403 156.957 46.9956L156.985 48.537L156.995 48.5323Z" fill="#C908FF"/>
  <path d="M135.76 46.4375L135.474 46.7661L135.76 47.0946C136.396 47.8233 136.781 48.7714 136.781 49.8067C136.781 52.0864 134.927 53.9355 132.631 53.9355C131.458 53.9355 130.4 53.4546 129.643 52.6767L129.284 52.3069L128.925 52.6777C128.175 53.4541 127.113 53.9355 125.939 53.9355C123.644 53.9355 121.789 52.0821 121.789 49.8067C121.789 48.7714 122.174 47.8233 122.81 47.0946L123.096 46.7661L122.81 46.4375C122.174 45.7089 121.789 44.7608 121.789 43.7255C121.789 41.4457 123.643 39.5967 125.939 39.5967C127.112 39.5967 128.17 40.0775 128.926 40.8554L129.286 41.2252L129.644 40.8544C130.395 40.078 131.457 39.5967 132.631 39.5967C134.926 39.5967 136.781 41.4501 136.781 43.7255C136.781 44.7608 136.396 45.7089 135.76 46.4375Z" fill="#92FF5C" stroke="#92FF5C"/>
  <path d="M4.7307 57.772H0.650391V74.1367H4.7307V57.772Z" fill="#01FFE2"/>
  <path d="M10.4872 57.772H7.12695V74.1367H10.4872V57.772Z" fill="#FF008C"/>
  <path d="M17.6864 57.772H14.3262V74.1367H17.6864V57.772Z" fill="#00FF2B"/>
  <path d="M21.6589 57.7852H20.2188V74.1499H21.6589V57.7852Z" fill="#FF008C"/>
  <path d="M28.0367 57.7852H23.4766V74.0207H28.0367V57.7852Z" fill="#FFF400"/>
  <path d="M38.4595 57.7852H34.5508V74.0207H38.4595V57.7852Z" fill="#01FFE2"/>
  <path d="M43.0188 57.7852H41.0645V74.0207H43.0188V57.7852Z" fill="#FFF400"/>
  <path d="M48.8757 57.772H47.4355V74.1367H48.8757V57.772Z" fill="#FF008C"/>
  <path d="M55.3968 57.7852H52.791V74.0207H55.3968V57.7852Z" fill="#00FF2B"/>
  <path d="M58.4709 57.772H56.5508V74.1367H58.4709V57.772Z" fill="#FF008C"/>
  <path d="M67.7747 57.7852H65.8203V74.0207H67.7747V57.7852Z" fill="#FFF400"/>
  <path d="M69.507 57.772H68.5469V74.1367H69.507V57.772Z" fill="#FF008C"/>
  <path d="M72.3869 57.772H70.4668V74.1367H72.3869V57.772Z" fill="#01FFE2"/>
  <path d="M79.5003 57.7852H76.8945V74.0207H79.5003V57.7852Z" fill="#FF008C"/>
  <path d="M86.0151 57.7852H82.7578V74.0207H86.0151V57.7852Z" fill="#FFF400"/>
  <path d="M93.8325 57.7852H89.9238V74.0207H93.8325V57.7852Z" fill="#00FF2B"/>
  <path d="M125.467 45.0609C121.867 47.7783 117.269 47.4972 114.436 44.6018C112.313 42.4373 111.419 39.0547 111.984 35.9205C112.61 32.4348 114.982 29.605 118.112 28.6118" stroke="#92FF5C" stroke-width="2" stroke-miterlimit="10"/>
</svg>