<svg width="35" height="23" viewBox="0 0 35 23" fill="none" xmlns="http://www.w3.org/2000/svg">
<g id="&#237;&#139;&#176;&#236;&#188;&#147;">
<rect id="Rectangle 407" width="22.674" height="18.1366" transform="matrix(-1 0 0 1 33.416 1.29297)" fill="white"/>
<path id="Vector 101" d="M10.7402 20.7251V1.29297H-8.2016e-05V5.17939C1.59108 5.39531 4.77339 6.86351 4.77339 11.009C4.77339 15.1545 1.98887 16.6228 0.596602 16.8387V20.7251H10.7402Z" fill="#C908FF"/>
<path id="$" d="M22.3449 16.8429V15.8005C20.3839 15.6911 19.1647 14.6616 19.0938 12.9307H20.7451C20.8161 13.7929 21.4676 14.2691 22.3449 14.3592V11.6052L21.8288 11.4765C20.2936 11.0776 19.3389 10.3054 19.3389 8.96707C19.3389 7.4421 20.6032 6.39328 22.3449 6.23885V5.18359H23.0931V6.23885C24.8993 6.34823 26.0991 7.42923 26.1249 8.91559H24.5123C24.4413 8.21423 23.9059 7.77025 23.0931 7.6673V10.2668L23.5189 10.3827C24.9122 10.7044 26.254 11.4379 26.254 13.0594C26.254 14.6037 25.1057 15.6847 23.0931 15.8005V16.8429H22.3449ZM21.0418 8.86411C21.0418 9.54617 21.6676 9.88076 22.3449 10.0738V7.68017C21.5256 7.79599 21.0418 8.25927 21.0418 8.86411ZM23.0931 14.3592C23.9898 14.2498 24.5768 13.7479 24.5768 13.0465C24.5768 12.3645 23.9833 12.0492 23.0931 11.7982V14.3592Z" fill="black"/>
<path id="Union" fill-rule="evenodd" clip-rule="evenodd" d="M0 0H34.6077V11.0115V22.0231H0V15.5457H0.000263095V14.2508C0.796629 14.2508 1.34752 13.9175 1.72469 13.4074C2.12468 12.8664 2.387 12.0399 2.387 11.0121C2.387 9.98439 2.12468 9.15789 1.72469 8.61692C1.34752 8.1068 0.796629 7.77346 0.000263095 7.77346V6.47737H0V0ZM2.38674 5.86152C2.84625 6.1562 3.24889 6.53914 3.58602 6.99511C4.39939 8.09518 4.77374 9.53576 4.77374 11.0121C4.77374 12.4885 4.39939 13.9291 3.58602 15.0292C3.24889 15.4852 2.84625 15.8681 2.38674 16.1628V19.4321H32.2209V2.59095H2.38674V5.86152ZM13.1282 2.59126V6.47768H10.7415V2.59126H13.1282ZM13.1282 12.9546V9.06821H10.7415V12.9546H13.1282ZM13.1282 19.4316V15.5452H10.7415V19.4316H13.1282Z" fill="black"/>
</g>
</svg>
