<svg width="28" height="29" viewBox="0 0 28 29" fill="none" xmlns="http://www.w3.org/2000/svg">
<path d="M10 2L13.5 5.5H14L15 3.5L19 1L22.5 2L25.5 6L26.5 10L24.5 14.5L13.5 27L1 12V9.5L2 6L3.5 3L6.5 2H10Z" fill="#FF008C"/>
<path fill-rule="evenodd" clip-rule="evenodd" d="M2.71331 16.0563L2.33751 15.6247C2.32482 15.6101 2.31217 15.5955 2.29958 15.5809C2.29958 15.5809 2.29959 15.5809 2.29958 15.5809C2.28836 15.5678 2.27716 15.5547 2.26602 15.5416C-0.778982 11.9611 -0.755156 6.22758 2.33751 2.68077C5.45418 -0.893589 10.5073 -0.893589 13.624 2.68077L14.0001 3.11209L14.376 2.68096C17.4927 -0.893392 22.5458 -0.893398 25.6625 2.68096C28.7792 6.25531 28.7792 12.0505 25.6625 15.6248L25.2866 16.056L14.0002 29L2.71331 16.0563ZM13.9998 25.0498L6.15962 16.0583L4.0598 13.6495C1.89432 11.166 1.89432 7.13945 4.0598 4.65598C6.22528 2.1725 9.73622 2.1725 11.9017 4.65597L14.0001 7.0625L16.0983 4.65617C18.2638 2.17269 21.7747 2.17269 23.9402 4.65617C26.1057 7.13964 26.1057 11.1662 23.9402 13.6496L21.8501 16.0467L13.9998 25.0498Z" fill="black"/>
</svg>
