<svg width="38" height="40" viewBox="0 0 38 40" fill="none" xmlns="http://www.w3.org/2000/svg">
<path d="M18.0577 2.6527C18.3728 1.76568 19.6272 1.76568 19.9423 2.65269L23.4655 12.5709C23.6016 12.9539 23.9559 13.2165 24.3619 13.2351L34.5063 13.7017C35.4168 13.7436 35.8011 14.8822 35.1023 15.4674L27.0761 22.1882C26.7791 22.4369 26.6524 22.8349 26.7511 23.2096L29.4752 33.5506C29.7122 34.4502 28.6999 35.1576 27.9365 34.6258L19.5716 28.7982C19.2281 28.5589 18.7719 28.5589 18.4284 28.7982L10.0635 34.6258C9.30011 35.1576 8.28784 34.4502 8.52482 33.5506L11.2489 23.2096C11.3476 22.8349 11.2209 22.4369 10.9239 22.1882L2.89768 15.4674C2.19886 14.8822 2.58324 13.7436 3.49374 13.7017L13.6381 13.2351C14.0441 13.2165 14.3984 12.9539 14.5344 12.5709L18.0577 2.6527Z" fill="#E4E4E4"/>
</svg>
