<svg width="31" height="31" viewBox="0 0 31 31" fill="none" xmlns="http://www.w3.org/2000/svg">
<path fill-rule="evenodd" clip-rule="evenodd" d="M23.9166 30.4185C24.5036 30.0973 24.7299 29.3406 24.4219 28.7283L23.1617 26.2226L21.0359 27.3858L22.2962 29.8914C22.6041 30.5037 23.3296 30.7396 23.9166 30.4185Z" fill="black"/>
<path fill-rule="evenodd" clip-rule="evenodd" d="M15.498 26.804C21.1324 26.804 25.7 22.0399 25.7 16.1631C25.7 10.2863 21.1324 5.52228 15.498 5.52228C9.86357 5.52228 5.29598 10.2863 5.29598 16.1631C5.29598 22.0399 9.86357 26.804 15.498 26.804ZM15.498 29.3077C22.4581 29.3077 28.1005 23.4227 28.1005 16.1631C28.1005 8.90358 22.4581 3.01855 15.498 3.01855C8.53783 3.01855 2.89551 8.90358 2.89551 16.1631C2.89551 23.4227 8.53783 29.3077 15.498 29.3077Z" fill="black"/>
<path fill-rule="evenodd" clip-rule="evenodd" d="M14.8975 9.90381C15.5604 9.90381 16.0977 10.4643 16.0977 11.1557V15.6719C16.0977 16.0918 16.2996 16.4837 16.6352 16.7156L19.7611 18.875C20.3137 19.2568 20.465 20.0336 20.099 20.61C19.7329 21.1864 18.9882 21.3442 18.4356 20.9624L15.3097 18.803C14.3028 18.1074 13.6973 16.9316 13.6973 15.6719V11.1557C13.6973 10.4643 14.2346 9.90381 14.8975 9.90381Z" fill="black"/>
<path fill-rule="evenodd" clip-rule="evenodd" d="M7.13708 30.4185C6.55008 30.0973 6.32385 29.3406 6.63179 28.7283L7.89203 26.2226L10.0178 27.3858L8.75752 29.8914C8.44958 30.5037 7.72409 30.7396 7.13708 30.4185Z" fill="black"/>
<path fill-rule="evenodd" clip-rule="evenodd" d="M22.1059 3.14804C22.1808 3.835 22.7754 4.3286 23.434 4.25051C23.8635 4.1996 24.2845 4.21286 24.7006 4.35669C25.1066 4.49708 25.5822 4.7873 26.0885 5.40935C27.063 6.60687 26.9669 7.73087 26.7864 8.22593C26.5507 8.87214 26.8619 9.59527 27.4814 9.84109C28.101 10.0869 28.7943 9.76233 29.03 9.11612C29.5044 7.81531 29.4899 5.71995 27.9185 3.78913C27.1518 2.847 26.3144 2.27698 25.4559 1.98014C24.6073 1.68675 23.8123 1.68581 23.1629 1.7628C22.5043 1.84089 22.0311 2.46108 22.1059 3.14804Z" fill="black"/>
<path fill-rule="evenodd" clip-rule="evenodd" d="M8.97216 3.19903C8.88483 3.88438 8.28135 4.36613 7.62426 4.27504C7.19581 4.21565 6.77459 4.22058 6.35604 4.35617C5.94752 4.4885 5.46669 4.76927 4.94925 5.38119C3.95312 6.55923 4.02876 7.68493 4.20029 8.18347C4.42418 8.83422 4.0999 9.55107 3.47599 9.7846C2.85207 10.0181 2.16479 9.6799 1.94089 9.02914C1.49019 7.7192 1.54282 5.62449 3.14894 3.72508C3.93263 2.79828 4.78028 2.24492 5.64404 1.96511C6.49777 1.68855 7.29263 1.70332 7.94053 1.79314C8.59762 1.88423 9.0595 2.51367 8.97216 3.19903Z" fill="black"/>
</svg>
