<svg width="31" height="27" viewBox="0 0 31 27" fill="none" xmlns="http://www.w3.org/2000/svg">
<path fill-rule="evenodd" clip-rule="evenodd" d="M12.0402 2.16C10.2879 2.16 8.85714 3.75535 8.85714 5.7375C8.85714 7.71965 10.2879 9.315 12.0402 9.315C13.7924 9.315 15.2232 7.71965 15.2232 5.7375C15.2232 3.75535 13.7924 2.16 12.0402 2.16ZM6.91964 5.7375C6.91964 2.57512 9.2065 0 12.0402 0C14.8739 0 17.1607 2.57512 17.1607 5.7375C17.1607 8.89988 14.8739 11.475 12.0402 11.475C9.2065 11.475 6.91964 8.89988 6.91964 5.7375ZM20.112 1.15978C20.3811 0.644284 20.9742 0.46964 21.4366 0.769702C22.9651 1.76162 23.9939 3.61575 23.9939 5.7375C23.9939 7.85925 22.9651 9.71338 21.4366 10.7053C20.9742 11.0054 20.3811 10.8307 20.112 10.3152C19.8428 9.79972 19.9995 9.13858 20.4619 8.83852C21.4153 8.21983 22.0564 7.06362 22.0564 5.7375C22.0564 4.41139 21.4153 3.25517 20.4619 2.63648C19.9995 2.33642 19.8428 1.67528 20.112 1.15978ZM3.12064 17.4078C5.17912 15.6159 8.17992 14.5886 12.0402 14.5886C15.9004 14.5886 18.9012 15.6159 20.9597 17.4078C23.0392 19.2179 24.0804 21.7462 24.0804 24.5129C24.0804 25.77 23.2401 27 21.9828 27H2.0976C0.840303 27 0 25.77 0 24.5129C0 21.7462 1.0412 19.2179 3.12064 17.4078ZM4.31304 19.1103C2.71518 20.5012 1.9375 22.3951 1.9375 24.5129C1.9375 24.6408 1.97896 24.7349 2.02145 24.7879C2.06242 24.839 2.09082 24.84 2.0976 24.84H21.9828C21.9895 24.84 22.0179 24.839 22.0589 24.7879C22.1014 24.7349 22.1429 24.6408 22.1429 24.5129C22.1429 22.3951 21.3652 20.5012 19.7673 19.1103C18.1485 17.7011 15.6136 16.7486 12.0402 16.7486C8.46677 16.7486 5.93185 17.7011 4.31304 19.1103ZM25.6241 15.7134C25.9456 15.2367 26.5529 15.1407 26.9806 15.4992C28.1099 16.4457 29.1014 18.0269 29.8046 19.6311C30.5076 21.2347 31 23.0389 31 24.5129C31 25.77 30.1597 27 28.9024 27H28.2148C27.6798 27 27.2461 26.5165 27.2461 25.92C27.2461 25.3235 27.6798 24.84 28.2148 24.84H28.9024C28.9092 24.84 28.9376 24.839 28.9785 24.7879C29.021 24.7349 29.0625 24.6408 29.0625 24.5129C29.0625 23.4926 28.6977 22.0255 28.0638 20.5794C27.4302 19.1338 26.6053 17.887 25.8163 17.2257C25.3886 16.8672 25.3026 16.1902 25.6241 15.7134Z" fill="black"/>
</svg>
