<svg width="29" height="29" viewBox="0 0 29 29" fill="none" xmlns="http://www.w3.org/2000/svg">
<path fill-rule="evenodd" clip-rule="evenodd" d="M2.81021 16.0563L2.42099 15.6247C2.40785 15.6101 2.39475 15.5955 2.38171 15.5809C2.38171 15.5809 2.38171 15.5809 2.38171 15.5809C2.37008 15.5678 2.35849 15.5547 2.34695 15.5416C-0.806802 11.9611 -0.782126 6.22758 2.42099 2.68077C5.64897 -0.893589 10.8826 -0.893589 14.1106 2.68077L14.5001 3.11209L14.8894 2.68096C18.1174 -0.893392 23.351 -0.893398 26.579 2.68096C29.807 6.25531 29.807 12.0505 26.579 15.6248L26.1897 16.056L14.5002 29L2.81021 16.0563ZM14.4998 25.0498L6.37961 16.0583L4.2048 13.6495C1.96197 11.166 1.96197 7.13945 4.20479 4.65598C6.44761 2.1725 10.0839 2.1725 12.3268 4.65597L14.5001 7.0625L16.6732 4.65617C18.9161 2.17269 22.5524 2.17269 24.7952 4.65617C27.038 7.13964 27.038 11.1662 24.7952 13.6496L22.6304 16.0467L14.4998 25.0498Z" fill="black"/>
</svg>
