<svg xmlns="http://www.w3.org/2000/svg" width="58" height="58" viewBox="0 0 58 58" fill="none">
  <path d="M34.3992 24.5801C34.5944 24.3848 34.5944 24.0683 34.3992 23.873C34.2039 23.6777 33.8873 23.6777 33.6921 23.873L34.3992 24.5801ZM25.8515 31.7136C25.6562 31.9088 25.6562 32.2254 25.8515 32.4207C26.0468 32.6159 26.3634 32.6159 26.5586 32.4207L25.8515 31.7136ZM33.6921 32.4207C33.8873 32.6159 34.2039 32.6159 34.3992 32.4207C34.5944 32.2254 34.5944 31.9088 34.3992 31.7136L33.6921 32.4207ZM26.5586 23.873C26.3634 23.6777 26.0468 23.6777 25.8515 23.873C25.6562 24.0683 25.6562 24.3848 25.8515 24.5801L26.5586 23.873ZM40.7136 28.1468C40.7136 33.9946 35.9731 38.7351 30.1253 38.7351V39.7351C36.5254 39.7351 41.7136 34.5468 41.7136 28.1468H40.7136ZM30.1253 38.7351C24.2776 38.7351 19.5371 33.9946 19.5371 28.1468H18.5371C18.5371 34.5468 23.7253 39.7351 30.1253 39.7351V38.7351ZM19.5371 28.1468C19.5371 22.2991 24.2776 17.5586 30.1253 17.5586V16.5586C23.7253 16.5586 18.5371 21.7468 18.5371 28.1468H19.5371ZM30.1253 17.5586C35.9731 17.5586 40.7136 22.2991 40.7136 28.1468H41.7136C41.7136 21.7468 36.5254 16.5586 30.1253 16.5586V17.5586ZM33.6921 23.873L29.7718 27.7933L30.4789 28.5004L34.3992 24.5801L33.6921 23.873ZM29.7718 27.7933L25.8515 31.7136L26.5586 32.4207L30.4789 28.5004L29.7718 27.7933ZM34.3992 31.7136L30.4789 27.7933L29.7718 28.5004L33.6921 32.4207L34.3992 31.7136ZM30.4789 27.7933L26.5586 23.873L25.8515 24.5801L29.7718 28.5004L30.4789 27.7933Z" fill="#8F8E94"/>
</svg>