<svg xmlns="http://www.w3.org/2000/svg" width="10" height="10" viewBox="0 0 10 10" fill="none">
  <path fill-rule="evenodd" clip-rule="evenodd" d="M0.646447 1.00101C0.841709 0.805752 1.16629 0.813748 1.37141 1.01887L8.72496 8.37242C8.93009 8.57755 8.93808 8.90212 8.74282 9.09739C8.54756 9.29265 8.22298 9.28465 8.01785 9.07953L0.664306 1.72598C0.459181 1.52086 0.451184 1.19628 0.646447 1.00101Z" fill="#8F8E94" stroke="#8F8E94" stroke-width="0.3" stroke-linecap="round"/>
  <path fill-rule="evenodd" clip-rule="evenodd" d="M0.353553 9.00101C0.158291 8.80575 0.166309 8.48115 0.371461 8.276L7.72595 0.921509C7.9311 0.716357 8.2557 0.708339 8.45097 0.903601C8.64623 1.09886 8.63821 1.42346 8.43306 1.62862L1.07857 8.98311C0.873415 9.18826 0.548816 9.19628 0.353553 9.00101Z" fill="#8F8E94" stroke="#8F8E94" stroke-width="0.3" stroke-linecap="round"/>
</svg>