<svg width="39" height="39" viewBox="0 0 39 39" fill="none" xmlns="http://www.w3.org/2000/svg">
<path d="M18.201 3.25C18.7783 2.25 20.2217 2.25 20.799 3.25L34.2224 26.5C34.7998 27.5 34.0781 28.75 32.9234 28.75H6.07661C4.92191 28.75 4.20022 27.5 4.77757 26.5L18.201 3.25Z" fill="#C908FF" fill-opacity="0.2" stroke="#C908FF"/>
<path d="M20.2656 13.6875L20.0938 21.6719H18.3281L18.1406 13.6875H20.2656ZM19.2188 25.125C18.5469 25.125 18 24.5781 18 23.9062C18 23.25 18.5469 22.7031 19.2188 22.7031C19.8594 22.7031 20.4219 23.25 20.4219 23.9062C20.4219 24.5781 19.8594 25.125 19.2188 25.125Z" fill="#C908FF"/>
</svg>
