<svg width="44" height="43" viewBox="0 0 44 43" fill="none" xmlns="http://www.w3.org/2000/svg">
<path id="Icon" d="M8.06736 42L28.0916 22.5092L37.5147 32.2546M8.06736 42H31.6252C35.5284 42 38.6926 38.7276 38.6926 34.6909V22.5092M8.06736 42C4.16417 42 1 38.7276 1 34.6909V10.3274C1 6.29072 4.16417 3.01834 8.06736 3.01834H23.38M36.3368 14.7821L36.3368 7.89105M36.3368 7.89105L36.3368 1M36.3368 7.89105L29.6736 7.89105M36.3368 7.89105L43 7.89105M15.1347 13.9819C15.1347 16.0003 13.5526 17.6365 11.601 17.6365C9.64945 17.6365 8.06736 16.0003 8.06736 13.9819C8.06736 11.9636 9.64945 10.3274 11.601 10.3274C13.5526 10.3274 15.1347 11.9636 15.1347 13.9819Z" stroke="#8F8E94" stroke-width="2" stroke-linecap="round" stroke-linejoin="round"/>
</svg>
