<svg width="21" height="12" viewBox="0 0 21 12" fill="none" xmlns="http://www.w3.org/2000/svg">
<rect width="13.7586" height="9.88235" transform="matrix(-1 0 0 1 20.2756 0.707031)" fill="white"/>
<path d="M6.51758 11.2953V0.707031H0.000337124V2.82468C0.965854 2.94233 2.89689 3.74233 2.89689 6.00115C2.89689 8.25997 1.20723 9.05997 0.362406 9.17762V11.2953H6.51758Z" fill="#C908FF"/>
<path d="M13.5587 9.18107V8.61309C12.3688 8.55349 11.629 7.99252 11.5859 7.0494H12.588C12.631 7.5192 13.0264 7.77865 13.5587 7.82774V6.32715L13.2456 6.25703C12.314 6.03966 11.7347 5.61893 11.7347 4.88968C11.7347 4.05874 12.5019 3.48726 13.5587 3.40312V2.82812H14.0128V3.40312C15.1088 3.46272 15.8368 4.05173 15.8525 4.86163H14.8739C14.8309 4.47947 14.506 4.23755 14.0128 4.18146V5.5979L14.2711 5.661C15.1166 5.83631 15.9308 6.23599 15.9308 7.11952C15.9308 7.96097 15.234 8.54998 14.0128 8.61309V9.18107H13.5587ZM12.768 4.83358C12.768 5.20522 13.1477 5.38753 13.5587 5.49271V4.18847C13.0616 4.25158 12.768 4.50401 12.768 4.83358ZM14.0128 7.82774C14.5569 7.76813 14.9131 7.49466 14.9131 7.1125C14.9131 6.74086 14.5529 6.56907 14.0128 6.43233V7.82774Z" fill="black"/>
<path fill-rule="evenodd" clip-rule="evenodd" d="M8.1718e-05 0H21.0001V6V12H8.1718e-05V9.17971C5.44788e-05 9.17971 2.72395e-05 9.17971 0 9.17971V7.76794C0.483236 7.76794 0.81752 7.58631 1.04639 7.30836C1.2891 7.01359 1.44828 6.56325 1.44828 6.00324C1.44828 5.44323 1.2891 4.99288 1.04639 4.69812C0.81752 4.42016 0.483236 4.23853 0 4.23853V2.82677C2.72395e-05 2.82677 5.44788e-05 2.82677 8.1718e-05 2.82677V0ZM1.44836 3.19689C1.72709 3.35743 1.97133 3.56604 2.17584 3.81442C2.6694 4.41383 2.89655 5.19878 2.89655 6.00324C2.89655 6.8077 2.6694 7.59265 2.17584 8.19206C1.97133 8.44043 1.72709 8.64904 1.44836 8.80959V10.5882H6.51774V8.47062H7.96602V10.5882H19.5518V1.41176H1.44836V3.19689ZM7.96602 1.41338V3.53103H6.51774V1.41338H7.96602ZM7.96602 7.05481V4.93716H6.51774V7.05481H7.96602Z" fill="black"/>
</svg>
