<svg width="27" height="27" viewBox="0 0 27 27" fill="none" xmlns="http://www.w3.org/2000/svg">
<path d="M25.0691 13.5C26.269 14.9349 27 16.807 27 18.8522C27 23.3549 23.4879 27 19.1495 27C16.9326 27 14.9302 26.0516 13.5 24.5177C12.0777 26.0516 10.0674 27 7.8505 27C3.51207 27 0 23.3467 0 18.8522C0 16.807 0.731012 14.9349 1.93084 13.5C0.731012 12.0651 0 10.193 0 8.14783C0 3.64509 3.51207 0 7.8505 0C10.0674 0 12.0697 0.948383 13.5 2.48229C14.9223 0.948383 16.9326 0 19.1495 0C23.4879 0 27 3.65333 27 8.14783C27 10.193 26.269 12.0651 25.0691 13.5Z" fill="#FAFF00"/>
</svg>
