<svg width="21" height="13" viewBox="0 0 21 13" fill="none" xmlns="http://www.w3.org/2000/svg">
<rect width="13.1604" height="9.92727" transform="matrix(-1 0 0 1 19.3955 1.01855)" fill="white"/>
<path d="M6.23438 11.6549V1.01855H0.000492096V3.14583C0.92403 3.26401 2.77111 4.06765 2.77111 6.33674C2.77111 8.60583 1.15491 9.40946 0.346819 9.52765V11.6549H6.23438Z" fill="#C908FF"/>
<path d="M12.971 9.52781V8.95725C11.8328 8.89738 11.1252 8.33387 11.084 7.38645H12.0425C12.0837 7.8584 12.4618 8.11902 12.971 8.16833V6.66093L12.6715 6.59049C11.7804 6.37213 11.2263 5.94949 11.2263 5.21692C11.2263 4.38221 11.9601 3.80813 12.971 3.7236V3.146H13.4053V3.7236C14.4537 3.78347 15.15 4.37517 15.165 5.18874H14.229C14.1878 4.80485 13.8771 4.56183 13.4053 4.50548V5.92836L13.6524 5.99175C14.4611 6.16785 15.2399 6.56936 15.2399 7.45689C15.2399 8.30217 14.5735 8.89386 13.4053 8.95725V9.52781H12.971ZM12.2147 5.16057C12.2147 5.5339 12.5779 5.71704 12.971 5.8227V4.51252C12.4955 4.57592 12.2147 4.8295 12.2147 5.16057ZM13.4053 8.16833C13.9257 8.10846 14.2664 7.83374 14.2664 7.44985C14.2664 7.07652 13.922 6.90394 13.4053 6.76659V8.16833Z" fill="black"/>
<path fill-rule="evenodd" clip-rule="evenodd" d="M0.000551224 0.30957H20.0875V6.33684V12.3641H0.000551224V9.52773C4.20149e-05 9.52773 -0.000467247 9.52773 -0.000976562 9.52773V8.10955C0.46125 8.10955 0.780999 7.92709 0.999916 7.64788C1.23208 7.35177 1.38433 6.89938 1.38433 6.33682C1.38433 5.77427 1.23208 5.32188 0.999916 5.02577C0.780999 4.74655 0.46125 4.56409 -0.000976562 4.56409V3.14591C-0.000467247 3.14591 4.20149e-05 3.14591 0.000551224 3.14591V0.30957ZM1.38586 3.51859C1.65187 3.67975 1.885 3.889 2.08026 4.13805C2.55236 4.74019 2.76964 5.52871 2.76964 6.33682C2.76964 7.14494 2.55236 7.93345 2.08026 8.53559C1.885 8.78464 1.65187 8.99389 1.38586 9.15505V10.9459H18.7022V1.72775H7.61947V3.85501H6.23416V1.72775H1.38586V3.51859ZM7.61947 7.40044V5.27317H6.23416V7.40044H7.61947ZM7.61947 10.9459V8.8186H6.23416V10.9459H7.61947Z" fill="black"/>
</svg>
