<svg width="21" height="21" viewBox="0 0 21 21" fill="none" xmlns="http://www.w3.org/2000/svg">
<path fill-rule="evenodd" clip-rule="evenodd" d="M1.75313 1.94123C-0.584379 4.52954 -0.584375 8.72602 1.75313 11.3143L2.0352 11.6267L2.03498 11.6269L10.4998 21L10.5001 20.9998L10.5002 20.9999L18.965 11.6268L18.9649 11.6267L19.2469 11.3145C21.5844 8.72616 21.5844 4.52968 19.2469 1.94137C16.9094 -0.646939 13.1195 -0.646935 10.782 1.94138L10.5001 2.25357L10.218 1.94123C7.88048 -0.647077 4.09064 -0.647078 1.75313 1.94123Z" fill="#FF008C"/>
<path fill-rule="evenodd" clip-rule="evenodd" d="M2.03498 11.627L1.75313 11.3144C1.74361 11.3039 1.73413 11.2933 1.72469 11.2827C1.72468 11.2827 1.72469 11.2827 1.72469 11.2827C1.71627 11.2733 1.70787 11.2638 1.69951 11.2543C-0.584236 8.6615 -0.566367 4.50963 1.75313 1.94124C4.09064 -0.647082 7.88048 -0.647081 10.218 1.94125L10.5001 2.25358L10.782 1.94139C13.1195 -0.646939 16.9094 -0.646944 19.2469 1.94138C21.5844 4.52971 21.5844 8.72622 19.2469 11.3145L18.9649 11.6267L10.5002 21L2.03498 11.627ZM10.4998 18.1395L4.61972 11.6284L3.04485 9.88409C1.42074 8.0857 1.42074 5.16995 3.04485 3.37157C4.66896 1.57319 7.30216 1.57319 8.92627 3.37157L10.5001 5.11423L12.0737 3.37171C13.6978 1.57333 16.331 1.57333 17.9552 3.37171C19.5793 5.17009 19.5793 8.08584 17.9551 9.88422L16.3875 11.62L10.4998 18.1395Z" fill="black"/>
</svg>
